# xmcd CD database file generated by OrangeCD 5.1
#
# Track frame offsets:
#	150
#	12161
#	23027
#	38264
#	50770
#	67620
#	84693
#	103441
#	116971
#	127752
#	146372
#	161674
#
# Disc length: 2314 seconds
#
# Revision: 1
# Processed by: cddbd v1.4PL0 Copyright (c) Steve Scherf et al.
# Submitted via: OrangeCD 5.1
#
DISCID=9509080c
DTITLE=Jim Roll - Lunette
DYEAR=1999
DGENRE=Country
TTITLE0=1955
TTITLE1=Blind Me
TTITLE2=Down
TTITLE3=She Ain't Gonna Go
TTITLE4=Lunette
TTITLE5=These Winds
TTITLE6=Age Old Love Story
TTITLE7=Everything
TTITLE8=Bleed (If You're Bleeding)
TTITLE9=Dear
TTITLE10=S15 And A Bottle Of Wine
TTITLE11=Witness World
EXTD=
EXTT0=
EXTT1=
EXTT2=
EXTT3=
EXTT4=
EXTT5=
EXTT6=
EXTT7=
EXTT8=
EXTT9=
EXTT10=
EXTT11=
PLAYORDER=
